<svg width="59" height="59" viewBox="0 0 59 59" fill="none" xmlns="http://www.w3.org/2000/svg">
<path d="M29 56C43.9117 56 56 43.9117 56 29C56 14.0883 43.9117 2 29 2C14.0883 2 2 14.0883 2 29C2 43.9117 14.0883 56 29 56Z" fill="white"/>
<path fill-rule="evenodd" clip-rule="evenodd" d="M29.5 0C45.7815 0 59 13.2185 59 29.5C59 45.7815 45.7815 59 29.5 59C13.2185 59 0 45.7815 0 29.5C0 13.2185 13.2185 0 29.5 0ZM29.5 4.91667C43.07 4.91667 54.0833 15.9325 54.0833 29.5C54.0833 43.07 43.07 54.0833 29.5 54.0833C15.9325 54.0833 4.91667 43.07 4.91667 29.5C4.91667 15.9325 15.9325 4.91667 29.5 4.91667ZM29.5 7.375C41.7105 7.375 51.625 17.2895 51.625 29.5C51.625 41.7105 41.7105 51.625 29.5 51.625C17.2895 51.625 7.375 41.7105 7.375 29.5C7.375 17.2895 17.2895 7.375 29.5 7.375ZM29.473 35.6458C28.3077 35.6606 27.5923 36.7472 27.0417 37.6223C25.8543 39.5079 24.571 41.5065 23.4648 43.188C23.0837 43.7731 22.6658 44.2451 21.9677 44.25C21.267 44.2549 20.6746 43.4068 21.0114 42.6963C21.9111 40.8059 25.8125 33.9963 25.8125 28.2708C25.8125 26.2894 24.7579 25.8125 23.3542 25.8125H18.4375C17.759 25.8125 17.2083 25.2618 17.2083 24.5833C17.2083 23.9048 17.759 23.3542 18.4375 23.3542H40.5625C41.241 23.3542 41.7917 23.9048 41.7917 24.5833C41.7917 25.2618 41.241 25.8125 40.5625 25.8125H35.6458C34.2446 25.8125 33.1875 26.2894 33.1875 28.2708C33.1875 33.9963 37.0889 40.8059 37.9886 42.6963C38.3254 43.4068 37.7354 44.2549 37.0323 44.25C36.3342 44.2451 35.9162 43.7731 35.5352 43.188C34.429 41.5065 33.1432 39.5079 31.9583 37.6223C31.4027 36.7398 30.68 35.6409 29.5 35.6458H29.473ZM29.5 14.75C31.5355 14.75 33.1875 16.402 33.1875 18.4375C33.1875 20.473 31.5355 22.125 29.5 22.125C27.4645 22.125 25.8125 20.473 25.8125 18.4375C25.8125 16.402 27.4645 14.75 29.5 14.75Z" fill="#0075FF"/>
</svg>
