<svg id="Layer_1" data-name="Layer 1" xmlns="http://www.w3.org/2000/svg" viewBox="0 0 336.61 279.31"><defs><style>.cls-1{fill:#fff;}.cls-2{fill:#617233;}.cls-3{fill:#bfbe7b;}.cls-4{fill:#94a558;}</style></defs><path class="cls-1" d="M6.89,124.84,7.46,123C7.28,123.49,7.09,124.13,6.89,124.84Z" transform="translate(-1.36 -2.93)"/><path class="cls-2" d="M98.31,171.64c-4.2,13.8-8.2,27.66-12.25,41.51,0,.19-.11.38-.17.59a.94.94,0,0,0,0,.09c0,.08,0,.16-.07.25l-.06.22q0,.1-.06.24l-.09.31c0,.14-.08.3-.13.47s-.07.26-.11.4a3.29,3.29,0,0,0-.1.37l-.12.4c-4.45-6.32-8.47-11.93-12.4-17.59-4.45-6.41-8.28-13.37-13.39-19.21-.28-.3-.54-.62-.79-.93s-.45-.56-.66-.84a26.84,26.84,0,0,1-2.31-3.67c-.12-.22-.23-.45-.34-.68s-.21-.44-.3-.67-.24-.54-.35-.83-.27-.73-.4-1.09-.17-.49-.23-.75-.16-.52-.23-.8-.15-.63-.22-1a2.4,2.4,0,0,1,0-.24c-.06-.25-.1-.5-.14-.75l-.06-.38q-.12-.77-.18-1.53c0-.11,0-.22,0-.31,0-.48-.06-1-.06-1.44,0-.29,0-.58,0-.87,0-.11,0-.22,0-.33s0-.22,0-.35a.75.75,0,0,1,0-.15c0-.22,0-.43,0-.65,0,0,0,0,0-.07q.06-.89.18-1.77c0-.3.08-.59.13-.89s.08-.49.13-.73c.07-.43.15-.85.25-1.27s.15-.71.24-1.06.18-.78.29-1.17c.18-.67.37-1.34.58-2,.11-.38.24-.77.37-1.16.32-1,.66-1.93,1-2.9,1.08-2.89,2.19-5.78,3.28-8.66l-1.42-1.35c-1.18.93-3,1.62-3.44,2.82-2.53,6.45-4.74,13-7.27,20.17l-.45-.71c-8.49-13.35-22.38-33.18-32.61-48.88A2,2,0,0,0,14,112c5.21,10.16,11.23,22.56,14.58,28.16.16.28.33.53.47.77l-18.44-2.13c-.23.72-.46,1.44-.68,2.16,1.23.82,2.36,2,3.71,2.38,2.4.6,4.94.55,7.4,1,7.7,1.28,13.67,4.56,17.9,11.83,6.74,11.6,14.54,22.58,22.48,34.72a136.1,136.1,0,0,0-40.46-3l-.45,2.7a34,34,0,0,0,5,1.35c11.69,1.29,23.44,2.11,35,3.92,3.12.5,6.55,3.33,8.55,6.05,8.87,12,17.27,24.39,26.56,37.67-18.62-3.39-36.33-5.69-54.23-4.46l-.69,2.13c1.65.62,3.27,1.64,5,1.8,14.54,1.43,29.11,2.6,43.64,4.07,7.33.75,13.15,4,16.67,10.94l.09.16c1.08,1.91,5.82,7.53,10.2,12.7l1.48-.58s0-.05.06-.07l.34-.45c-5.56-8.43-13.4-21.07-17.51-26.86-2.12-3-3.85-6.3-6.33-8.94-.26-.29-.52-.58-.76-.87s-.33-.4-.49-.61l-.21-.28-.26-.36-.27-.39c-.16-.25-.32-.49-.46-.74s-.3-.52-.44-.78h0c-.13-.24-.25-.49-.36-.74A14.7,14.7,0,0,1,90,221.68c-.07-.35-.12-.7-.17-1.07s-.06-.58-.08-.88v-.07c0-.13,0-.26,0-.39a14.28,14.28,0,0,1,0-1.85,3.42,3.42,0,0,1,0-.45h0s0,0,0,0a8.36,8.36,0,0,1,.09-.86c0-.31.08-.62.14-.92a.12.12,0,0,1,0-.08h0l.09-.46s0,0,0,0c0-.27.1-.55.17-.83l.05-.2c.09-.35.18-.7.28-1,3.74-12.91,7.61-25.78,11.39-38.67.48-1.64.73-3.34,1.1-5l-1.66-1.05C100.41,169,98.76,170.16,98.31,171.64Z" transform="translate(-1.36 -2.93)"/><path class="cls-3" d="M89.44,131.47a56.59,56.59,0,0,1,10.61,9.6c7.59,8.94,14.86,18.18,22.1,27.42,1.29,1.63,1.91,3.83,2.68,5.82q3.3,8.59,6.46,17.22c.57,1.55,1.58,3.3,1.3,4.73-1.38,7,3.6,13,3.47,19.28-.21,9.24,2.84,19.29-4.24,27.76-2,2.44-2.31,6.27-4.11,9-2.85,4.27-5.44,8.15-8,11.65l-.49.68-.93,1.2c-5.56-8.43-13.4-21.07-17.51-26.86-2.12-3-3.85-6.3-6.33-8.94-.26-.29-.52-.58-.76-.87s-.33-.4-.49-.61l-.21-.28-.26-.36-.27-.39c-.16-.25-.32-.49-.46-.74s-.3-.52-.44-.78h0c-.13-.24-.25-.49-.36-.74A14.7,14.7,0,0,1,90,221.68c-.07-.35-.12-.7-.17-1.07s-.06-.58-.08-.88v-.07c0-.13,0-.26,0-.39a14.28,14.28,0,0,1,0-1.85,3.42,3.42,0,0,1,0-.45h0s0,0,0,0a8.36,8.36,0,0,1,.09-.86c0-.31.08-.62.14-.92a.19.19,0,0,1,0-.08h0l.09-.46s0,0,0,0c0-.27.1-.55.17-.83l.05-.2c.08-.35.18-.7.28-1,3.74-12.91,7.61-25.78,11.39-38.67.48-1.64.73-3.34,1.1-5l-1.66-1.05c-1.1,1.28-2.75,2.41-3.2,3.89-4.2,13.8-8.2,27.66-12.25,41.51,0,.19-.11.38-.17.59a.94.94,0,0,0,0,.09c0,.08,0,.16-.07.25l-.06.22q0,.1-.06.24l-.09.31c0,.14-.09.3-.13.47s-.07.26-.11.4a3.29,3.29,0,0,0-.1.37l-.12.4c-4.45-6.32-8.47-11.93-12.4-17.59-4.45-6.41-8.28-13.37-13.39-19.21-.28-.3-.54-.62-.79-.93s-.45-.56-.66-.84a26.84,26.84,0,0,1-2.31-3.67c-.12-.22-.23-.45-.34-.68s-.21-.44-.3-.67-.24-.54-.35-.83-.27-.73-.4-1.09-.17-.49-.23-.75-.16-.52-.23-.8-.15-.63-.22-1a2.4,2.4,0,0,1,0-.24c-.06-.25-.1-.5-.14-.75l-.06-.38q-.12-.77-.18-1.53c0-.11,0-.22,0-.31,0-.48-.06-1-.06-1.44,0-.29,0-.58,0-.87,0-.11,0-.22,0-.33s0-.22,0-.35a.75.75,0,0,1,0-.15c0-.21,0-.43,0-.65,0,0,0,0,0-.07q.06-.89.18-1.77c0-.3.08-.59.13-.89s.08-.49.13-.73c.07-.43.15-.85.25-1.27s.15-.71.24-1.06.18-.78.29-1.17c.18-.67.37-1.34.58-2,.11-.38.24-.77.37-1.16.32-1,.66-1.93,1-2.9,1.08-2.89,2.19-5.78,3.28-8.66l-1.42-1.35c-1.18.93-3,1.62-3.44,2.82-2.53,6.45-4.74,13-7.27,20.17l-.45-.71c-8.49-13.35-22.38-33.18-32.61-48.88,2.27-1.22,5.1-1.63,8.66-1.28,7.6.73,15.43.8,22.7,2.82,10.43,2.89,20.51,7.11,30.6,11.13A66.25,66.25,0,0,1,89.44,131.47Z" transform="translate(-1.36 -2.93)"/><path class="cls-4" d="M13.48,112.36l-.2.14c-2.3,1.65-3.94,4.34-5.12,8.14-.24.77-.47,1.54-.7,2.31l-4,21.16v0c-.07,1-.16,2-.25,3-.07.75-.14,1.5-.22,2.24-.1.91-.21,1.82-.32,2.73C1,164.79,0,177.32,6,189.26c.45.88.88,1.76,1.33,2.65l-.09,4.39v0a15.88,15.88,0,0,0-.08,3.91c.25,2.25.46,4.15.66,5.9,0,.16,0,.31.05.46s0,.29.07.43a8.22,8.22,0,0,0,.15.84l.12.53c0,.14.07.27.11.4s.08.26.13.39.18.51.29.78l.2.44c.11.22.22.45.36.68l.18.32c.06.11.13.22.2.33l.21.33c.07.12.15.22.23.34.43.64.95,1.33,1.57,2.11.2.26.42.52.65.8s.48.56.73.87l.41.47c5,5.83,9.92,11.15,14,17,6,8.6,12.86,16,23.37,21.62,4.21,3.44,7,4.3,8.82,6.27,1,.59,2.07,1.15,3.11,1.68l1.55.76,0,0c1,.49,2,1,3.07,1.39l.07,0c1.59.67,3.18,1.28,4.79,1.84,1,.36,2.1.69,3.16,1l.12,0,1.58.44c.55.14,1.09.29,1.64.42s1.1.26,1.65.38l1.66.35,1.63.31.14,0,1.58.25c.5.08,1,.16,1.53.22l.24,0,1.61.19c1.14.12,2.28.22,3.44.3s2.3.13,3.47.16h0a71,71,0,0,0,20.56-4.5c-4.38-5.17-9.12-10.79-10.2-12.7l-.09-.16c-3.52-6.92-9.34-10.19-16.67-10.94-14.53-1.47-29.1-2.64-43.64-4.07-1.7-.16-3.32-1.18-5-1.8l.69-2.13c17.9-1.23,35.61,1.07,54.23,4.46C86.44,226.29,78,213.92,69.17,201.9c-2-2.72-5.43-5.55-8.55-6.05-11.6-1.81-23.35-2.63-35-3.92a34,34,0,0,1-5-1.35l.45-2.7a136.1,136.1,0,0,1,40.46,3C53.52,178.73,45.72,167.75,39,156.15c-4.23-7.27-10.2-10.55-17.9-11.83-2.46-.42-5-.37-7.4-1C12.33,143,11.2,141.79,10,141c.22-.72.45-1.44.68-2.16l18.44,2.13c-.14-.24-.31-.49-.47-.77-3.35-5.6-9.37-18-14.58-28.16A6.53,6.53,0,0,0,13.48,112.36Z" transform="translate(-1.36 -2.93)"/><path class="cls-1" d="M208.06,107.79l-4.12,2.64A20.61,20.61,0,0,1,208.06,107.79Z" transform="translate(-1.36 -2.93)"/><path class="cls-1" d="M212.73,104.81a13.63,13.63,0,0,1-4.64,3Z" transform="translate(-1.36 -2.93)"/><path class="cls-1" d="M176.16,10l2.29,1.71C177.61,11,176.84,10.46,176.16,10Z" transform="translate(-1.36 -2.93)"/><path class="cls-2" d="M106,143.34c-.34.89-.68,1.77-1,2.65,1.87,1.63,3.63,3.38,5.61,4.86,15.54,11.67,31.17,23.22,46.68,34.93l1.24,1,.23.19c.32.27.63.54.92.81,0,0,0,0,0,0,.17.14.33.3.5.45h0s.06,0,.08.08c.33.3.65.62,1,.94s.58.6.85.91a.07.07,0,0,1,0,.05v0c.14.15.29.31.43.48a20.93,20.93,0,0,1,1.63,2.12c.11.15.21.31.31.46a.28.28,0,0,1,.06.09c.24.36.47.72.68,1.09s.51.92.73,1.39a22.13,22.13,0,0,1,1.76,5.1c.08.38.15.77.22,1.16v0c.06.42.11.85.16,1.28s.08.82.1,1.25c0,.22,0,.45,0,.68s0,.43,0,.65,0,.33,0,.5q0,.57,0,1.14c0,.54-.08,1.1-.14,1.67-.57,5.2.29,10.55.42,15.83.24,10.27,2.12,31.69,3,46.29l.78.21.13,0c.72-.19,1.46-.39,2.21-.62.6-9.78,1.23-20.4.82-23.54l0-.26c-1.92-11.06,2-19.9,9.84-27.12,15.55-14.29,31.42-28.25,47-42.49,1.83-1.67,2.83-4.25,4.2-6.41l-2.64-1.86c-21.79,14.08-40.31,32.08-59,52.13-.74-23.43-1.73-45-1.86-66.64,0-4.87,1.47-11.12,4.66-14.4,11.87-12.15,24.77-23.28,37.18-34.89,1.81-1.7,3.12-3.94,4.67-5.93l-2.85-2.73a196.52,196.52,0,0,0-44.28,38.5c-1.32-20.92-1.8-40.4-4-59.68-1.41-12.08,2.67-21,10.48-29.21,2.49-2.61,5.47-4.76,7.73-7.53,1.27-1.56,1.53-3.95,2.24-6-.88-.65-1.77-1.28-2.66-1.92L166.68,49.57c0-.4-.07-.84-.11-1.3-1-9.38-4.74-29-7.51-45.24a4.12,4.12,0,0,0-.52.06c1.74,27.05,2.82,62.05,4.56,84.86,0,.41.07.81.1,1.22-9.12-6.08-17.38-11.79-25.9-17.07-1.6-1-4.26-.23-6.43-.29-.16.93-.32,1.87-.47,2.79,3.76,2.4,7.54,4.78,11.3,7.19,1.26.82,2.49,1.64,3.69,2.48.49.34,1,.68,1.44,1,.82.59,1.63,1.21,2.42,1.83.46.36.9.73,1.34,1.1l1.2,1c.48.41.94.83,1.39,1.25l.78.75c.32.29.63.6.92.91.6.62,1.19,1.24,1.74,1.89,0,0,.06,0,.07.08.22.24.42.47.62.72l.13.17.32.38.29.39c.27.32.52.66.76,1,.42.57.81,1.13,1.18,1.72.08.11.16.24.25.38.4.63.77,1.26,1.11,1.92l.27.5c.17.31.33.64.48,1,.05.1.11.21.16.32q.3.65.57,1.29c.16.38.3.74.43,1.12s.26.72.38,1.08c.17.52.34,1.06.49,1.6s.22.84.31,1.26.16.69.23,1.05.14.71.19,1.07a39.08,39.08,0,0,1,.51,6.26c0,.5,0,1-.05,1.54s0,1.17-.09,1.76c-.87,11.19.72,22.57,1.11,33.85.36,10,.56,19.93.87,31.11q-.24-.19-.48-.36c-.15-.13-.29-.24-.43-.34s-.33-.25-.48-.38l-.56-.42-.36-.28-.29-.23-.26-.2-.3-.23-.1-.08-.71-.53c-16.68-12.54-33.32-25.13-50.14-37.48C111.29,143.75,108.41,143.88,106,143.34Z" transform="translate(-1.36 -2.93)"/><path class="cls-4" d="M88.59,90.86a81,81,0,0,0-4,20.31c-1,16.94-1.47,33.94-1.86,50.9-.07,3,1.11,6.09,2,9.06q3.61,12.83,7.42,25.56c.69,2.28,1,5.18,2.6,6.59,7.68,6.94,7.09,18.18,12.68,25.34,8.24,10.52,13.41,24.8,28.95,28.48,4.46,1.06,8.1,5.25,12.54,6.83,7,2.49,13.36,4.74,19.38,6.56.39.11.78.22,1.16.35l2.12.6c-.86-14.6-2.74-36-3-46.29-.13-5.28-1-10.63-.42-15.83.06-.57.1-1.13.14-1.67q0-.57,0-1.14c0-.17,0-.32,0-.5s0-.43,0-.65,0-.46,0-.68c0-.43-.05-.84-.1-1.25s-.1-.86-.16-1.28v0c-.07-.39-.14-.78-.22-1.16a22.13,22.13,0,0,0-1.76-5.1c-.22-.47-.47-.93-.73-1.39s-.44-.73-.68-1.09a.28.28,0,0,0-.06-.09c-.1-.15-.2-.31-.31-.46a20.93,20.93,0,0,0-1.63-2.12c-.14-.17-.29-.33-.43-.48v0a.07.07,0,0,0,0-.05c-.27-.31-.56-.61-.85-.91s-.64-.64-1-.94a.2.2,0,0,0-.08-.08h0c-.17-.15-.33-.31-.5-.45,0,0,0,0,0,0-.29-.27-.6-.54-.92-.81l-.23-.19c-.4-.33-.81-.64-1.24-1-15.51-11.71-31.14-23.26-46.68-34.93-2-1.48-3.74-3.23-5.61-4.86.33-.88.67-1.76,1-2.65,2.38.54,5.26.41,7.07,1.73,16.82,12.35,33.46,24.94,50.14,37.48l.71.53.1.08.3.23.26.2.29.23.36.28.56.42c.15.13.31.25.48.38s.28.21.43.34.32.23.48.36c-.31-11.18-.51-21.15-.87-31.11-.39-11.28-2-22.66-1.11-33.85.05-.59.07-1.18.09-1.76s0-1,.05-1.54a39.08,39.08,0,0,0-.51-6.26c-.05-.36-.12-.72-.19-1.07s-.15-.7-.23-1.05-.19-.84-.31-1.26-.32-1.08-.49-1.6c-.12-.36-.23-.72-.38-1.08s-.27-.74-.43-1.12-.37-.86-.57-1.29c0-.11-.11-.22-.16-.32-.15-.34-.31-.67-.48-1l-.27-.5c-.34-.66-.71-1.29-1.11-1.92-.09-.14-.17-.27-.25-.38-.37-.59-.76-1.15-1.18-1.72-.24-.34-.49-.68-.76-1l-.29-.39-.32-.38-.13-.17-.62-.72s0,0-.07-.08c-.55-.64-1.14-1.27-1.74-1.89-.29-.31-.6-.62-.92-.91l-.78-.75c-.45-.42-.91-.84-1.39-1.25l-1.2-1c-.44-.37-.88-.74-1.34-1.1-.79-.62-1.6-1.24-2.42-1.83-.47-.35-1-.69-1.44-1-1.2-.84-2.43-1.66-3.69-2.48-3.76-2.41-7.54-4.79-11.3-7.19.15-.92.31-1.86.47-2.79,2.17.06,4.83-.69,6.43.29,8.52,5.28,16.78,11,25.9,17.07,0-.41-.07-.81-.1-1.22-1.74-22.81-2.82-57.81-4.56-84.86-3.69.55-7.32,2.53-11.15,6-8.17,7.43-17.17,14.3-23.84,22.93C114,44.42,105.94,58,97.74,71.43A95.73,95.73,0,0,0,88.59,90.86Z" transform="translate(-1.36 -2.93)"/><path class="cls-3" d="M160,2.94h.35c4.11-.08,8.33,1.61,13,5L176.16,10l23,21,.05,0c1,1.1,1.91,2.17,2.87,3.22.73.82,1.46,1.62,2.2,2.41.9,1,1.81,1.94,2.73,2.89,12.9,13.26,24.89,26.92,28.23,46,.25,1.41.51,2.81.76,4.22l3.9,5,0,0a23.19,23.19,0,0,1,3.46,4.45l4.36,7.41c.11.19.23.39.33.58s.2.37.29.55a11.4,11.4,0,0,1,.56,1.1c.11.24.22.49.32.73s.15.37.22.55.13.37.19.56c.12.38.23.76.34,1.16,0,.21.1.44.15.68s.12.71.17,1.1c0,.18,0,.36.07.54s0,.37.05.54a5.46,5.46,0,0,1,0,.58c0,.19,0,.37,0,.59,0,1.1,0,2.35,0,3.79,0,.49,0,1-.06,1.49s-.06,1.07-.1,1.65c0,.29,0,.58-.06.89-.76,11.1-1.83,21.51-1.49,31.87.49,15.17-1,29.72-8.34,45.28-1.9,7.64-4.37,11-4.79,14.91-.69,1.57-1.4,3.11-2.15,4.64-.36.74-.75,1.48-1.13,2.22,0,0,0,0,0,0Q231.25,224.9,230,227a.21.21,0,0,1-.06.1c-1.25,2.15-2.56,4.25-3.94,6.28-.9,1.33-1.84,2.63-2.78,3.91a.88.88,0,0,1-.12.15c-.48.64-.95,1.26-1.44,1.88s-1,1.28-1.53,1.9-1,1.26-1.58,1.88-1.08,1.24-1.62,1.84l-1.63,1.77-.14.15c-.53.54-1.06,1.1-1.61,1.65s-1.05,1.06-1.59,1.58l-.24.25c-.58.54-1.13,1.08-1.71,1.61-1.21,1.12-2.44,2.23-3.72,3.32s-2.56,2.15-3.88,3.19h0l0,0a103.31,103.31,0,0,1-27.73,12.59c.6-9.78,1.23-20.4.82-23.54l0-.26c-1.92-11.06,2-19.9,9.84-27.12,15.55-14.29,31.42-28.25,47-42.49,1.83-1.67,2.83-4.25,4.2-6.41l-2.64-1.86c-21.79,14.08-40.31,32.08-59,52.13-.74-23.43-1.73-45-1.86-66.64,0-4.87,1.47-11.12,4.66-14.4,11.87-12.15,24.77-23.28,37.18-34.89,1.81-1.7,3.12-3.94,4.67-5.93l-2.85-2.73a196.52,196.52,0,0,0-44.28,38.5c-1.32-20.92-1.8-40.4-4-59.68-1.41-12.08,2.67-21,10.48-29.21,2.49-2.61,5.47-4.76,7.73-7.53,1.27-1.56,1.53-3.95,2.24-6-.88-.65-1.77-1.28-2.66-1.92L166.68,49.57c0-.4-.07-.84-.11-1.3-1-9.38-4.74-29-7.51-45.24Z" transform="translate(-1.36 -2.93)"/><path class="cls-1" d="M239.93,94.82l3.46,4.45A23.19,23.19,0,0,0,239.93,94.82Z" transform="translate(-1.36 -2.93)"/><path class="cls-1" d="M236,89.78a15.7,15.7,0,0,0,3.9,5Z" transform="translate(-1.36 -2.93)"/><path class="cls-1" d="M287.4,67.53l2.37-.73C289.08,67,288.28,67.24,287.4,67.53Z" transform="translate(-1.36 -2.93)"/><path class="cls-2" d="M302.25,195.44c-17.32,5.23-34.56,10.71-51.82,16.13l-.73.23-.11,0-.31.1L249,212l-.3.1-.38.12-.58.19-.5.17-.45.15-.5.16c3.49-9,6.54-17.14,9.71-25.18,3.58-9.11,8.17-18,10.7-27.34.13-.5.28-1,.43-1.47s.27-.86.41-1.27a33.31,33.31,0,0,1,2.22-5c.15-.28.31-.55.47-.82s.32-.53.49-.79.4-.63.62-.94.57-.79.86-1.17.4-.52.62-.77.44-.53.68-.79.55-.6.84-.89c.07-.08.15-.15.22-.22.22-.23.45-.45.68-.66l.36-.33c.47-.44,1-.85,1.47-1.25l.31-.24c.47-.37.95-.72,1.46-1.06.3-.21.6-.41.91-.6l.35-.23.37-.22.16-.1c.23-.15.46-.28.71-.41l.08,0c.64-.37,1.3-.71,2-1q.5-.26,1-.48l.85-.38c.49-.22,1-.43,1.5-.62l1.27-.49c.47-.18.94-.35,1.42-.51.82-.28,1.66-.55,2.51-.8q.72-.22,1.47-.42c1.22-.34,2.47-.66,3.73-1,3.77-.89,7.55-1.74,11.32-2.61l.42-2.42c-1.79-.58-3.75-2-5.34-1.62-8.49,1.85-16.89,4.13-26.1,6.46.14-.32.29-.64.43-1,8-18.14,19-46.43,28.27-68l-.41-.2c-7,12.5-15.71,27.42-19.22,34.81-.17.36-.32.71-.47,1-3.7-7.23-7.16-14-10.62-20.72l-2.73.8c0,1.85-.48,3.88.11,5.52,1,2.92,2.86,5.54,4.14,8.39,4,8.93,4.76,17.44.12,26.91-7.4,15.11-13.42,30.89-20.55,47.61a170.53,170.53,0,0,0-25.06-44.27l-3.12,1.41a42.51,42.51,0,0,0,2.1,6.19c6.79,13.08,14.11,25.91,20.3,39.27,1.66,3.6,1.09,9.15-.35,13.12-6.36,17.62-13.41,35-20.79,53.93-9.44-21.78-19.37-41.85-33.11-59.66l-2.7.76c.5,2.16.57,4.56,1.58,6.45,8.63,16.15,17.56,32.15,26.14,48.33,4.33,8.17,5,16.52.2,25l-.1.2c-1.24,2.45-3.8,11.31-6.14,19.48.55.4,1.1.78,1.63,1.14h.12l.7.05c4.92-11.68,12.65-28.65,15.82-37,1.63-4.28,3.88-8.4,4.92-12.82.11-.48.24-.95.37-1.4s.19-.63.3-.94c.05-.14.09-.27.15-.41s.12-.35.19-.53.15-.37.22-.55q.21-.51.45-1c.16-.34.33-.67.5-1h0c.17-.3.34-.6.52-.89a19.28,19.28,0,0,1,2.91-3.66c.32-.32.65-.62,1-.92s.57-.47.87-.7l.07-.05.39-.29a18,18,0,0,1,2-1.26c.16-.1.33-.19.49-.27h0s0,0,0,0c.31-.18.63-.34,1-.5s.7-.34,1.06-.49a.15.15,0,0,1,.09,0h0l.54-.23s0,0,0,0c.32-.14.65-.27,1-.4l.24-.09,1.29-.43c16.07-5.09,32.18-10,48.26-15.05,2-.64,4-1.56,6-2.35l-.06-2.46C306.43,195.82,304.11,194.88,302.25,195.44Z" transform="translate(-1.36 -2.93)"/><path class="cls-3" d="M338,158.22A70.54,70.54,0,0,1,335.34,176c-4,14.15-8.61,28.16-13.2,42.14-.81,2.48-2.67,4.65-4.21,6.84q-6.66,9.44-13.46,18.74c-1.22,1.67-2.34,3.94-4,4.64-8.28,3.45-11.05,12.81-17.69,17-9.78,6.22-18.13,16.4-31.9,14.91-3.95-.42-8.14,2-12.22,2-6.44,0-12.29,0-17.74-.25l-1-.05-1.9-.12c4.92-11.68,12.65-28.65,15.82-37,1.63-4.28,3.88-8.4,4.92-12.82.11-.48.24-.95.37-1.4s.19-.63.3-.94c.05-.14.09-.27.15-.41s.12-.35.19-.53.15-.37.22-.55q.21-.51.45-1c.16-.34.33-.67.5-1h0c.17-.3.34-.6.52-.89a19.28,19.28,0,0,1,2.91-3.66c.32-.32.65-.62,1-.92s.57-.47.87-.7l.07-.05.39-.29a18,18,0,0,1,2-1.26c.16-.1.33-.19.49-.27h0s0,0,0,0c.31-.18.63-.34,1-.5s.7-.34,1.06-.49l.09,0h0l.54-.23s0,0,0,0c.32-.14.65-.27,1-.4l.24-.09c.42-.15.85-.29,1.29-.43,16.07-5.09,32.18-10,48.26-15.05,2-.64,4-1.56,6-2.35l-.06-2.46c-2.1-.25-4.42-1.19-6.28-.63-17.32,5.23-34.56,10.71-51.82,16.13l-.73.23-.11,0-.31.1L249,212l-.3.1-.38.12-.58.19-.5.17-.45.15-.5.16c3.49-9,6.54-17.14,9.71-25.18,3.58-9.11,8.17-18,10.7-27.34.13-.5.28-1,.43-1.47s.27-.86.41-1.27a33.31,33.31,0,0,1,2.22-5c.15-.28.31-.55.47-.82s.32-.53.49-.79.4-.63.62-.94.57-.79.86-1.17.4-.52.62-.77.44-.53.68-.79.55-.6.84-.89c.07-.08.15-.15.22-.22.22-.23.45-.45.68-.66l.36-.33c.47-.44,1-.85,1.47-1.25l.31-.24c.47-.37.95-.72,1.46-1.06.3-.21.6-.41.91-.6l.35-.23.37-.22.16-.1.71-.41.08,0c.64-.36,1.3-.71,2-1q.5-.26,1-.48l.85-.38c.49-.22,1-.43,1.5-.62l1.27-.49c.47-.18.94-.35,1.42-.51.82-.28,1.66-.55,2.51-.8q.72-.22,1.47-.42c1.22-.34,2.47-.66,3.73-1,3.77-.89,7.55-1.74,11.32-2.61l.42-2.42c-1.79-.58-3.75-2-5.34-1.62-8.49,1.85-16.89,4.13-26.1,6.46.14-.32.29-.64.43-1,8-18.14,19-46.43,28.27-68,2.85,1.52,5.25,4.19,7.37,8.15,4.53,8.43,9.9,16.65,12.85,25.63,4.25,12.89,6.88,26.34,9.71,39.66A83.13,83.13,0,0,1,338,158.22Z" transform="translate(-1.36 -2.93)"/><path class="cls-4" d="M305,65.71l-.29-.11c-3.33-1.25-7.27-1.09-12.06.33l-2.89.87L264.89,77.33l-.05,0c-1.1.62-2.19,1.22-3.28,1.8-.83.46-1.66.9-2.49,1.33-1,.54-2,1.06-3.07,1.57-14.38,7.11-28.13,14.81-36.37,29.43l-1.84,3.23-4.64,3,0,0a20.61,20.61,0,0,0-4.12,2.64l-5.7,4.8-.44.37-.4.37c-.27.24-.53.48-.77.74s-.32.33-.47.5l-.34.39c-.11.13-.22.26-.32.4s-.41.55-.61.85l-.32.51c-.15.27-.31.55-.46.85l-.21.42c-.07.14-.14.29-.2.43s-.14.3-.2.46-.13.3-.2.47c-.36.89-.72,1.91-1.1,3.1-.13.4-.25.81-.38,1.24l-.4,1.37-.21.75c-2.58,9.29-4.72,18.11-8,26.48-4.79,12.25-7.78,24.58-6.28,39.42-.66,6.79.38,10.28-.4,13.57q.17,2.22.42,4.41c.08.71.18,1.43.28,2.14a0,0,0,0,0,0,0c.2,1.4.43,2.79.68,4.17a.36.36,0,0,0,0,.1q.6,3.18,1.41,6.27c.35,1.35.74,2.68,1.14,4a1,1,0,0,0,0,.16c.21.66.42,1.3.64,1.95s.46,1.34.7,2,.49,1.33.75,2,.52,1.32.79,2,.54,1.28.82,1.92c0,.06,0,.11.07.16.28.6.55,1.21.84,1.82s.55,1.17.84,1.75c0,.09.08.18.13.27.31.61.61,1.21.93,1.81.66,1.27,1.35,2.53,2.08,3.79s1.47,2.5,2.25,3.73h0l0,0a89.61,89.61,0,0,0,19,18.31c2.34-8.17,4.9-17,6.14-19.48l.1-.2c4.77-8.49,4.13-16.84-.2-25C213,219.75,204,203.75,195.39,187.6c-1-1.89-1.08-4.29-1.58-6.45l2.7-.76c13.74,17.81,23.67,37.88,33.11,59.66,7.38-18.94,14.43-36.31,20.79-53.93,1.44-4,2-9.52.35-13.12-6.19-13.36-13.51-26.19-20.3-39.27a42.51,42.51,0,0,1-2.1-6.19l3.12-1.41a170.53,170.53,0,0,1,25.06,44.27c7.13-16.72,13.15-32.5,20.55-47.61,4.64-9.47,3.9-18-.12-26.91-1.28-2.85-3.1-5.47-4.14-8.39-.59-1.64-.11-3.67-.11-5.52l2.73-.8c3.46,6.75,6.92,13.49,10.62,20.72.15-.32.3-.67.47-1,3.51-7.39,12.25-22.31,19.22-34.81C305.51,65.93,305.26,65.81,305,65.71Z" transform="translate(-1.36 -2.93)"/></svg>