<svg width="30" height="30" viewBox="0 0 30 30" fill="none" xmlns="http://www.w3.org/2000/svg">
<path fill-rule="evenodd" clip-rule="evenodd" d="M6.25 0H23.75C27.2026 0 30 2.79876 30 6.25V23.75C30 27.2012 27.2026 30 23.75 30H6.25C2.79876 30 0 27.2012 0 23.75V6.25C0 2.79876 2.79876 0 6.25 0ZM16.6206 15.8581V24.8462H12.9676V15.8581H10V12.3657H12.9996V9.70889C12.9803 8.80571 13.2142 7.91511 13.6746 7.13783C14.0675 6.47655 14.6386 5.93909 15.3224 5.58677C16.0062 5.23444 16.7753 5.08144 17.5419 5.14522C18.4367 5.14434 19.331 5.19441 20.2202 5.29521V8.36981H18.6132C17.6812 8.36981 17.0919 8.57334 16.867 8.98044C16.7978 9.08919 16.7471 9.20866 16.717 9.33396C16.6224 9.68265 16.5898 10.0453 16.6206 10.4053V12.3657H20.1023L19.6524 15.8581H16.6206Z" fill="#342109"/>
</svg>
