<svg width="30" height="30" viewBox="0 0 30 30" fill="none" xmlns="http://www.w3.org/2000/svg">
<path fill-rule="evenodd" clip-rule="evenodd" d="M6.25 0H23.75C27.2026 0 30 2.79876 30 6.25V23.75C30 27.2012 27.2026 30 23.75 30H6.25C2.79876 30 0 27.2012 0 23.75V6.25C0 2.79876 2.79876 0 6.25 0ZM16.6206 15.8569V24.845H12.9676V15.8569H10V12.3645H12.9996V9.70768C12.9803 8.8045 13.2142 7.9139 13.6746 7.13662C14.0675 6.47534 14.6386 5.93789 15.3224 5.58556C16.0062 5.23323 16.7753 5.08023 17.5419 5.14402C18.4367 5.14313 19.331 5.1932 20.2202 5.294V8.3686H18.6132C17.6812 8.3686 17.0919 8.57214 16.867 8.97923C16.7978 9.08799 16.7471 9.20745 16.717 9.33275C16.6224 9.68144 16.5898 10.0441 16.6206 10.4041V12.3645H20.1023L19.6524 15.8569H16.6206Z" fill="white"/>
</svg>
