<svg id="Layer_1" data-name="Layer 1" xmlns="http://www.w3.org/2000/svg" viewBox="0 0 326.97 279.18"><defs><style>.cls-1{fill:#7c485c;}.cls-2{fill:#ffea9d;}.cls-3{fill:#51183a;}.cls-4{fill:#5e2a4b;}.cls-5{fill:#bc5572;}</style></defs><path class="cls-1" d="M182.49,133.14c0,.62,0,1.23,0,1.85s0,1.22-.07,1.84-.06,1.11-.1,1.67c0,.15,0,.31,0,.46,0,.34,0,.69-.08,1s-.06.64-.1,1c-.06.57-.12,1.14-.19,1.72s-.15,1.15-.23,1.73-.17,1.14-.27,1.7-.16,1-.25,1.47c-.06.35-.13.7-.2,1-.19,1-.38,1.92-.6,2.87l-.15.63c-.09.43-.2.85-.31,1.27s-.13.54-.2.81-.21.82-.33,1.23c0,.16-.07.31-.12.46-.29,1.09-.62,2.17-.95,3.26l-.27.07a22,22,0,0,1-.74,3c-.09.29-.19.6-.3.92-.87,1.17-10.22,3.2-14.3,3.82h0l-1.33.16H161c-4.9.05-9.81.07-14.72.17-2.21,0-4.43.09-6.64.18-6.47.24-13.1,0-19.36,1.33-17.59,3.81-26.27,16.51-30.4,32.92a41.54,41.54,0,0,0-.93,5.35c-.6,6.4-.88,12.25.84,18.73-.68.06-1.34.1-2,.12a146.78,146.78,0,0,1-15.84-.1c-19.75-1.83-37-9.19-50.67-24A50.63,50.63,0,0,1,10.68,185.6a49.4,49.4,0,0,1-3.37-13.25,44.7,44.7,0,0,1,9.43-35.43c5.69-7.24,14-10.59,22.51-13.13,3.54-1,7.08-2,10.64-3-2.33,1.23-.5,8.5,5,14,6.32,6.28,17.48,10.21,32.83.09,11.52-7.59,14.57-14.94,13.89-21.23-.78-7.39-6.7-13.32-10.07-16.49l1.92-1.86c1.68-1.66,3.25-3.17,4.8-4.69,5.81-5.71,11.89-11.25,19.89-13.44a59.09,59.09,0,0,1,9.13-1.75c1.48-.16,3-.24,4.4-.27s2.88,0,4.31.11c.56,0,1.13.09,1.69.15,1.12.13,2.23.29,3.32.5.55.1,1.1.21,1.64.34,1.09.25,2.17.54,3.24.86.36.1.71.22,1.06.34l.94.33a45.06,45.06,0,0,1,4.33,1.81c.92.44,1.83.91,2.73,1.42a51.88,51.88,0,0,1,4.5,2.84l.73.52.31.23.33.26A.67.67,0,0,1,161,85l.19.15c1.06.8,2.11,1.66,3.15,2.57l.65.58c.32.28.63.57.94.86.7.64,1.31,1.39,2.1,2.26.14-.1.29-.18.43-.27A46.54,46.54,0,0,1,174,99.66l.2.4c1.18,2.29,2.41,5,3.69,8.11.36.94.71,1.9,1,2.85.15.43.29.86.42,1.3.22.66.42,1.34.6,2s.35,1.27.51,1.91.33,1.39.48,2.09.29,1.39.42,2.09.25,1.41.36,2.11.2,1.41.29,2.12.15,1.4.22,2.11.11,1.41.16,2.12.07,1.42.09,2.13S182.49,132.43,182.49,133.14Z" transform="translate(-6.77 -2.16)"/><path class="cls-1" d="M254.1,72.58a85.34,85.34,0,0,1-3.22,8.84l0,0c-1.67,3.51-3.4,7-5.11,10.5-.43.87-1,1.68-1.59,2.7C233.48,92.83,230.62,92,224,89c0,0,0,0-.07,0-4.7-1.77-9.42-3.5-14.17-5.13-14.11-4.85-27.22-2.74-39.3,6-.61.44-1.29.82-2,1.24-.14.09-.29.17-.43.27-.79-.87-1.4-1.62-2.1-2.26-.31-.29-.62-.58-.94-.86l-.65-.58c-1-.91-2.09-1.77-3.15-2.57L161,85l-.15-.12-.32-.23-.31-.23-.73-.52c-.79-.55-1.59-1.09-2.4-1.59s-1.4-.86-2.1-1.25c-.9-.51-1.81-1-2.73-1.42a45.06,45.06,0,0,0-4.33-1.81l-.94-.33c-.35-.12-.7-.24-1.06-.34-1.07-.33-2.15-.62-3.24-.86-.54-.13-1.09-.24-1.64-.34-1.1-.21-2.2-.38-3.32-.5-.56-.06-1.13-.11-1.69-.15-1.43-.1-2.86-.14-4.31-.11s-2.92.11-4.4.27a59.09,59.09,0,0,0-9.13,1.75c-5.49,1.5-10.07,4.58-14.29,8.21-1.93,1.66-3.78,3.44-5.6,5.23-1.55,1.52-3.12,3-4.8,4.69l-1.92,1.86-.14.14-.1.11L87,101.62l-.46.42,0,0-.12.09c-.31-.5-.61-1-.9-1.47,0,0-.06-.1-.1-.15-.26-.43-.53-.85-.79-1.27a67.77,67.77,0,0,1-9.63-23.36,48.61,48.61,0,0,1-.86-8.71,50,50,0,0,1,1.69-13.51,44.9,44.9,0,0,1,44.54-34.07q1.09,0,2.19.06.61,0,1.23,0l2.08.09c.88.05,1.77.09,2.65.15h.09c.93.05,1.84.11,2.75.18,1.78.12,3.54.26,5.31.4h.18l.39,0a48.36,48.36,0,0,0-.26,9.2c.63,9.12,4.15,17.73,13,18.1,13.9.58,32.25,0,35.72-17.08a33.73,33.73,0,0,0,.67-5.48,20.77,20.77,0,0,0-3.63-13.2c4.83-2.33,9.73-4.54,14.71-6.56,8.35-3.39,16.17-4.2,23.48-2.67,1,.2,2,.46,3,.76h0c.31.09.61.18.91.29,0,0,0,0,0,0,6.32,2.1,12.24,6,17.77,11.51a48.4,48.4,0,0,1,8.77,11.82,52.75,52.75,0,0,1,5.71,19.5,0,0,0,0,0,0,0C258.15,53,257.14,62.65,254.1,72.58Z" transform="translate(-6.77 -2.16)"/><path class="cls-1" d="M333.74,132.67v10.85c-1.83,6.39-2.94,13.12-5.63,19.13-9.64,21.58-26.54,35.92-48.73,42.55l-9.92,3a83.6,83.6,0,0,0,1.16-18.85v-.14a.11.11,0,0,0,0,0,23.92,23.92,0,0,0-.35-2.5.36.36,0,0,0,0-.1.77.77,0,0,1,0-.15c-.11-.67-.22-1.35-.35-2-.05-.34-.12-.67-.18-1q-.19-1-.42-2a48.76,48.76,0,0,0-4.86-12.81C256.13,153.69,241,146.11,227,144.4c-7.49-.92-14.63.94-21.3,4.23-2.15,1.05-4.29,2.15-6.42,3.26q-2.59,1.34-5.18,2.72c-.61.31-1.2.64-1.81,1h-.11l-.06.05h0c-.67.47-2.17,3-9,4.76h0c-.67.35-1.37.68-2.11,1-.35.16-.71.32-1.1.48l-1.11.48c-.55.23-1.13.48-1.75.76.11-.32.21-.63.3-.92.36-1,.69-2,1-3.06s.66-2.17.95-3.26c.05-.15.08-.3.12-.46q.18-.62.33-1.23c.07-.27.13-.53.2-.81s.22-.84.31-1.27l.15-.63c.22-.95.41-1.91.6-2.87.07-.34.14-.69.2-1,.09-.5.18-1,.25-1.47s.19-1.14.27-1.7.16-1.16.23-1.73.14-1.15.19-1.72c0-.33.07-.65.1-1s.06-.7.08-1c0-.15,0-.31,0-.46,0-.56.07-1.12.1-1.67s.06-1.23.07-1.84,0-1.23,0-1.85v-.5c0-.55,0-1.09,0-1.63q0-1.06-.09-2.13c-.05-.71-.1-1.42-.16-2.12s-.13-1.41-.22-2.11-.19-1.42-.29-2.12-.22-1.41-.36-2.11-.26-1.4-.42-2.09-.31-1.4-.48-2.09-.33-1.28-.51-1.91-.38-1.35-.6-2c-.13-.44-.27-.87-.42-1.3-.31-1-.66-1.91-1-2.85-.18-.48-.37-1-.57-1.43s-.38-.95-.59-1.42-.28-.66-.44-1-.17-.38-.25-.56c-.41-.89-.85-1.8-1.31-2.69-.17-.35-.34-.68-.53-1l-.2-.4-.56-1a44.43,44.43,0,0,0-5-7.51c.72-.42,1.4-.8,2-1.24,12.08-8.73,25.19-10.84,39.3-6,4.75,1.63,9.47,3.36,14.17,5.13-1.63,4.29-3.2,10-3,15.53.41,9.31,6,18,25.39,18,14.24,0,21-3.91,24-9.15,3.58-6.09,2.18-14,1.86-19.54,5.25-.79,10.5-1.6,15.79-2.07A42.81,42.81,0,0,1,303.29,93h0c10.89,3,19.06,10.79,24.85,22.22C330.88,120.58,331.93,126.82,333.74,132.67Z" transform="translate(-6.77 -2.16)"/><path class="cls-1" d="M269.46,208.16a101,101,0,0,1-3.77,16,73.2,73.2,0,0,1-13.22,22c-4.76,6.82-20.13,19.49-31.63,24l-.05,0c-29.54,13.71-59.87,15.69-90.75,1.62-15.47-7-27.27-17.85-34.64-32.47l0-.06c-.74-1.48-1.45-3-2.11-4.58a78.29,78.29,0,0,1-2.74-7.64c-.08-.29-.24-.55-.43-1h-.24l0-.1a38.36,38.36,0,0,1-1.24-8.21,74.76,74.76,0,0,1,.4-10.52,41.54,41.54,0,0,1,.93-5.35c4.13-16.41,12.81-29.11,30.4-32.92,6.26-1.35,12.89-1.09,19.36-1.33,2.21-.09,4.43-.14,6.64-.18a7.41,7.41,0,0,0-1.61,5,28.38,28.38,0,0,0,1.8,11.26c.18.46.37.92.57,1.37a18.24,18.24,0,0,0,8,8.94c3.22,1.69,7.31,2.38,12.44,1.46,18.16-3.25,27.11-7.58,29-16a15,15,0,0,0,.31-2.22,27.48,27.48,0,0,0-.08-4.23c-.76-8.09-4.45-17.38-4.45-17.38.61-.32,1.2-.65,1.81-1,3.85-2,7.7-4.06,11.6-6,6.67-3.29,13.81-5.15,21.3-4.23a53.26,53.26,0,0,1,17.73,5.4h0a48,48,0,0,1,9.45,6.27h0a45.47,45.47,0,0,1,9.54,11.24,47.53,47.53,0,0,1,5.57,14q.23,1,.42,2l.18,1c.13.67.24,1.35.35,2a.77.77,0,0,0,0,.15.36.36,0,0,1,0,.1,3.4,3.4,0,0,0,.07.46,2.91,2.91,0,0,0,0,.31l.24,1.73a.11.11,0,0,1,0,0v.14A83.6,83.6,0,0,1,269.46,208.16Z" transform="translate(-6.77 -2.16)"/><path class="cls-2" d="M246.34,122.52c-30.79,0-26.81-22-22.43-33.51a.09.09,0,0,1,.07,0c6.65,2.93,9.51,3.79,20.18,5.63l-.11.19c1.68.3,3.35.52,5,.65h.06c7.31.58,14.41-.35,21.52-1.44.53-.07,1.06-.16,1.59-.24C272.8,104.18,277.14,122.52,246.34,122.52Z" transform="translate(-6.77 -2.16)"/><path class="cls-2" d="M185.65,30.81c-3.47,17.08-21.82,17.66-35.71,17.08-11.89-.5-14.17-15.81-12.76-27.3l2.27.18,2.84.21c13.62,1,26.38-1.91,38.56-7.94l1.84-.91C185.22,15.64,187.53,21.58,185.65,30.81Z" transform="translate(-6.77 -2.16)"/><path class="cls-2" d="M192.26,155.57h0a1.33,1.33,0,0,0-.12.06h0c-.68.47-2.18,3-9,4.76h0c-.67.35-1.36.68-2.1,1l-1.1.48-1.11.48c-.56.23-1.14.48-1.76.76-.86,1.17-10.22,3.2-14.3,3.82h0a7.69,7.69,0,0,1-1.33.16H161c-4.9.05-9.81.07-14.71.17a7.41,7.41,0,0,0-1.61,5c-.39,6.61,2.15,17.27,10.33,21.57,3.21,1.69,7.31,2.38,12.43,1.46,18.17-3.25,27.12-7.58,29-16S192.26,155.57,192.26,155.57Z" transform="translate(-6.77 -2.16)"/><path class="cls-2" d="M87.75,134.89c-28.79,19-42.84-11.45-37.85-14.08l.62-.17a1.34,1.34,0,0,0-.3,0c7.24-2.67,25.67-10.26,36.14-18.53a0,0,0,0,1,0,0s0,0,0,0l.31-.29a30,30,0,0,0,4.72-4.59l.14-.14C97.8,103,112.79,118.38,87.75,134.89Z" transform="translate(-6.77 -2.16)"/><path class="cls-3" d="M93.26,234.57c.66,1.56,1.37,3.1,2.11,4.58A26,26,0,0,1,93.26,234.57Z" transform="translate(-6.77 -2.16)"/><path class="cls-4" d="M269.46,208.16a101,101,0,0,1-3.77,16,73.2,73.2,0,0,1-13.22,22c-4.76,6.82-20.13,19.49-31.63,24l-.05,0c-29.54,13.71-59.87,15.69-90.75,1.62-15.47-7-27.27-17.85-34.64-32.47,26.29,45,186.68,18.82,168.3-71.9a47.53,47.53,0,0,1,5.57,14q.23,1,.42,2l.18,1c.13.67.24,1.35.35,2a.77.77,0,0,0,0,.15.36.36,0,0,1,0,.1,3.4,3.4,0,0,0,.07.46,2.91,2.91,0,0,0,0,.31l.24,1.73a.11.11,0,0,1,0,0v.14A83.6,83.6,0,0,1,269.46,208.16Z" transform="translate(-6.77 -2.16)"/><path class="cls-5" d="M146.5,183.61c-24.34.33-45.63,11.27-58.6,35.23L89,207.09a41.54,41.54,0,0,1,.93-5.35c4.13-16.41,12.81-29.11,30.4-32.92,6.26-1.35,12.89-1.09,19.36-1.33,2.21-.09,4.43-.14,6.64-.18a7.41,7.41,0,0,0-1.61,5A28.38,28.38,0,0,0,146.5,183.61Z" transform="translate(-6.77 -2.16)"/><path class="cls-5" d="M254.16,156.07h0c-9.85-6.71-20.95-.64-33.68,6.05-6.3,3.32-14,9.83-23.69,15.06a27.48,27.48,0,0,0-.08-4.23c-.76-8.09-4.45-17.38-4.45-17.38.61-.32,1.2-.65,1.81-1,3.85-2,7.7-4.06,11.6-6,6.67-3.29,13.81-5.15,21.3-4.23a53.26,53.26,0,0,1,17.73,5.4h0A48,48,0,0,1,254.16,156.07Z" transform="translate(-6.77 -2.16)"/><path class="cls-4" d="M182.49,133.14c0,.62,0,1.23,0,1.85s0,1.22-.07,1.84-.06,1.11-.1,1.67c0,.15,0,.31,0,.46,0,.34,0,.69-.08,1s-.06.64-.1,1c-.06.57-.12,1.14-.19,1.72s-.15,1.15-.23,1.73-.17,1.14-.27,1.7-.16,1-.25,1.47c-.06.35-.13.7-.2,1-.19,1-.38,1.92-.6,2.87l-.15.63c-.09.43-.2.85-.31,1.27s-.13.54-.2.81-.21.82-.33,1.23c0,.16-.07.31-.12.46-.29,1.09-.62,2.17-.95,3.26l-.27.07a22,22,0,0,1-.74,3c-.09.29-.19.6-.3.92-.87,1.17-10.22,3.2-14.3,3.82h0l-1.33.16H161c-4.9.05-9.81.07-14.72.17-2.21,0-4.43.09-6.64.18-6.47.24-13.1,0-19.36,1.33-17.59,3.81-26.27,16.51-30.4,32.92a41.54,41.54,0,0,0-.93,5.35c-.6,6.4-.88,12.25.84,18.73-.68.06-1.34.1-2,.12a146.78,146.78,0,0,1-15.84-.1c-19.75-1.83-37-9.19-50.67-24A50.63,50.63,0,0,1,10.68,185.6c18.38,11.9,47.87,21.57,104.11-18.29C145,145.91,177,130.24,165,88.26c.32.28.63.57.94.86.7.64,1.31,1.39,2.1,2.26.14-.1.29-.18.43-.27A46.54,46.54,0,0,1,174,99.66l.2.4c1.18,2.29,2.41,5,3.69,8.11.36.94.71,1.9,1,2.85.15.43.29.86.42,1.3.22.66.42,1.34.6,2s.35,1.27.51,1.91.33,1.39.48,2.09.29,1.39.42,2.09.25,1.41.36,2.11.2,1.41.29,2.12.15,1.4.22,2.11.11,1.41.16,2.12.07,1.42.09,2.13S182.49,132.43,182.49,133.14Z" transform="translate(-6.77 -2.16)"/><path class="cls-5" d="M54.91,134.8l-.86.22C39.4,138.8,7.5,156.87,7.31,172.35a44.7,44.7,0,0,1,9.43-35.43c5.69-7.24,14-10.59,22.51-13.13,3.54-1,7.08-2,10.64-3C47.56,122,49.39,129.31,54.91,134.8Z" transform="translate(-6.77 -2.16)"/><path class="cls-5" d="M141,75.92c-11.75.08-24.37,9.88-30.14,26.24-1.44,4.09-4.8,8-9.25,11.5-.78-7.39-6.7-13.32-10.07-16.49l1.92-1.86c1.68-1.66,3.25-3.17,4.8-4.69,5.81-5.71,11.89-11.25,19.89-13.44a59.09,59.09,0,0,1,9.13-1.75c1.48-.16,3-.24,4.4-.27s2.88,0,4.31.11c.56,0,1.13.09,1.69.15C138.82,75.55,139.93,75.71,141,75.92Z" transform="translate(-6.77 -2.16)"/><path class="cls-4" d="M199.25,151.89q-2.59,1.34-5.18,2.72c-.61.31-1.2.64-1.81,1h-.11l-.06.05h0c-.67.47-2.17,3-9,4.76h0c-.67.35-1.37.68-2.11,1-.35.16-.71.32-1.1.48l-1.11.48c-.55.23-1.13.48-1.75.76.11-.32.21-.63.3-.92.36-1,.69-2,1-3.06s.66-2.17.95-3.26c.05-.15.08-.3.12-.46q.18-.62.33-1.23c.07-.27.13-.53.2-.81s.22-.84.31-1.27l.15-.63c.22-.95.41-1.91.6-2.87.07-.34.14-.69.2-1,.09-.5.18-1,.25-1.47s.19-1.14.27-1.7.16-1.16.23-1.73.14-1.15.19-1.72c0-.33.07-.65.1-1s.06-.7.08-1c0-.15,0-.31,0-.46,0-.56.07-1.12.1-1.67s.06-1.23.07-1.84,0-1.23,0-1.85v-.5A67.73,67.73,0,0,0,199.25,151.89Z" transform="translate(-6.77 -2.16)"/><path class="cls-4" d="M333.74,142.32v1.2c-1.83,6.39-2.94,13.12-5.63,19.13-9.64,21.58-26.54,35.92-48.73,42.55l-9.92,3a83.6,83.6,0,0,0,1.16-18.85v-.14a.11.11,0,0,0,0,0,23.92,23.92,0,0,0-.35-2.5.36.36,0,0,0,0-.1.77.77,0,0,1,0-.15c-.11-.67-.22-1.35-.35-2-.05-.34-.12-.67-.18-1q-.19-1-.42-2a48.76,48.76,0,0,0-4.86-12.81q7.75-.26,16.37-1.21C303.46,164.78,318.21,164.22,333.74,142.32Z" transform="translate(-6.77 -2.16)"/><path class="cls-5" d="M223.91,89c-1.63,4.29-3.2,10-3,15.53-19.35-5.58-32.84-7.67-47.51-5.92a44.43,44.43,0,0,0-5-7.51c.72-.42,1.4-.8,2-1.24,12.08-8.73,25.19-10.84,39.3-6C214.49,85.51,219.21,87.24,223.91,89Z" transform="translate(-6.77 -2.16)"/><path class="cls-5" d="M289.6,110c-5.41,2.21-11.88,3.28-19.25,3.35,3.58-6.09,2.18-14,1.86-19.54,5.25-.79,10.5-1.6,15.79-2.07A42.81,42.81,0,0,1,303.29,93h0C316.29,102,304.7,103.84,289.6,110Z" transform="translate(-6.77 -2.16)"/><path class="cls-4" d="M74.94,75.91c7.4,5.48,17.66,8.32,28.94,9.48-1.93,1.66-3.78,3.44-5.6,5.23-1.55,1.52-3.12,3-4.8,4.69l-1.92,1.86-.14.14-.1.11L87,101.62l-.46.42,0,0-.12.09c-.31-.5-.61-1-.9-1.47,0,0-.06-.1-.1-.15-.26-.43-.53-.85-.79-1.27A67.77,67.77,0,0,1,74.94,75.91Z" transform="translate(-6.77 -2.16)"/><path class="cls-4" d="M254.1,72.58a85.34,85.34,0,0,1-3.22,8.84l0,0c-1.67,3.51-3.4,7-5.11,10.5-.43.87-1,1.68-1.59,2.7C233.48,92.83,230.62,92,224,89c0,0,0,0-.07,0-4.7-1.77-9.42-3.5-14.17-5.13-14.11-4.85-27.22-2.74-39.3,6-.61.44-1.29.82-2,1.24-.14.09-.29.17-.43.27-.79-.87-1.4-1.62-2.1-2.26-.31-.29-.62-.58-.94-.86l-.65-.58c-1-.91-2.09-1.77-3.15-2.57L161,85l-.15-.12-.32-.23-.31-.23-.73-.52c-.79-.55-1.59-1.09-2.4-1.59,10.39-1.78,18.92-3.76,23.65-4.91C199.29,72.84,248.1,66,251.09,30.07c.08-1,.18-1.89.3-2.78a52.75,52.75,0,0,1,5.71,19.5,0,0,0,0,0,0,0C258.15,53,257.14,62.65,254.1,72.58Z" transform="translate(-6.77 -2.16)"/><path class="cls-5" d="M137.18,20.59a48.36,48.36,0,0,0-.26,9.2c-19.49-.4-46.23,11.72-62.84,37.41a50,50,0,0,1,1.69-13.51,44.9,44.9,0,0,1,44.54-34.07q1.09,0,2.19.06.61,0,1.23,0l2.08.09c.88.05,1.77.09,2.65.15h.09c.93.05,1.84.11,2.75.18,1.78.12,3.54.26,5.31.4h.18Z" transform="translate(-6.77 -2.16)"/><path class="cls-5" d="M220.88,2.9c-6.17-.31-9.48,8.35-21.63,16.29a59.38,59.38,0,0,1-12.93,6.14,20.77,20.77,0,0,0-3.63-13.2c4.83-2.33,9.73-4.54,14.71-6.56C205.75,2.18,213.57,1.37,220.88,2.9Z" transform="translate(-6.77 -2.16)"/></svg>