<svg id="Layer_1" data-name="Layer 1" xmlns="http://www.w3.org/2000/svg" viewBox="0 0 291.38 292.74"><defs><style>.cls-1{fill:#f0d906;}.cls-2{fill:#407136;}.cls-3{fill:#342109;}</style></defs><path class="cls-1" d="M173.48,103.11V257a77.14,77.14,0,0,1,0-153.87Z" transform="translate(-34.31 -33.63)"/><g id="_Radial_Repeat_" data-name="&lt;Radial Repeat&gt;"><path class="cls-2" d="M129.29,271.54c47,.69,30.09,28.35,51.08,34.57C130.07,311.63,138.15,275.72,129.29,271.54Z" transform="translate(-34.31 -33.63)"/><path class="cls-2" d="M115,312.26c40.48,18.36,45.57-1.92,65.39-6.15C134,287.52,122.65,312.08,115,312.26Z" transform="translate(-34.31 -33.63)"/></g><g id="_Radial_Repeat_2" data-name="&lt;Radial Repeat&gt;"><path class="cls-2" d="M100,245.61c43.6,16.9,17.57,36.88,34.85,49.95C85.8,283.32,106.68,252.58,100,245.61Z" transform="translate(-34.31 -33.63)"/><path class="cls-2" d="M71.49,278.68c31,31.15,43.25,14,63.32,16.88C98.38,262.14,78.71,281.17,71.49,278.68Z" transform="translate(-34.31 -33.63)"/></g><g id="_Radial_Repeat_3" data-name="&lt;Radial Repeat&gt;"><path class="cls-2" d="M82.21,211.26c34.43,30.86,2.71,40.51,14,58.68C55,241.56,85.9,220.09,82.21,211.26Z" transform="translate(-34.31 -33.63)"/><path class="cls-2" d="M43.35,232.28c17.36,39.79,35.19,28,52.85,37.66C74.6,226.15,49.18,237.1,43.35,232.28Z" transform="translate(-34.31 -33.63)"/></g><g id="_Radial_Repeat_4" data-name="&lt;Radial Repeat&gt;"><path class="cls-2" d="M78.39,173.05c20.69,40.72-12.51,38.75-8.72,59.62C41.74,191.92,78.56,182.57,78.39,173.05Z" transform="translate(-34.31 -33.63)"/><path class="cls-2" d="M34.31,179.23c1.43,43.16,22.46,38.33,35.36,53.44C65.76,184.31,38,185.75,34.31,179.23Z" transform="translate(-34.31 -33.63)"/></g><g id="_Radial_Repeat_5" data-name="&lt;Radial Repeat&gt;"><path class="cls-2" d="M89,136.05c4.2,45.18-26.06,31.86-30.28,52.65C47.79,141,85.63,145,89,136.05Z" transform="translate(-34.31 -33.63)"/><path class="cls-2" d="M45.57,126.58c-14.69,40.78,6.73,43.54,13.16,62.12C73,142.2,46.55,133.92,45.57,126.58Z" transform="translate(-34.31 -33.63)"/></g><g id="_Radial_Repeat_6" data-name="&lt;Radial Repeat&gt;"><path class="cls-2" d="M112.66,105.18c-12.85,43.63-36.16,20.73-47.81,38.68C72.34,95.53,106.19,112.36,112.66,105.18Z" transform="translate(-34.31 -33.63)"/><path class="cls-2" d="M75.62,81.31c-28.85,33-9.88,43-10.77,62.55C95.47,105.39,73.81,88.5,75.62,81.31Z" transform="translate(-34.31 -33.63)"/></g><g id="_Radial_Repeat_7" data-name="&lt;Radial Repeat&gt;"><path class="cls-2" d="M146.2,84.55c-28.2,36.28-41.45,6.84-59,19.57C112.14,61.59,137.49,89,146.2,84.55Z" transform="translate(-34.31 -33.63)"/><path class="cls-2" d="M120.48,49.44C81.3,70.26,95.3,86.16,87.2,104.12,130.07,78.8,116.12,55.54,120.48,49.44Z" transform="translate(-34.31 -33.63)"/></g><g id="_Radial_Repeat_8" data-name="&lt;Radial Repeat&gt;"><path class="cls-2" d="M185.17,76.89c-39.79,24.12-41.23-8-62.34-2.14C161.9,43.67,175.38,78,185.17,76.89Z" transform="translate(-34.31 -33.63)"/><path class="cls-2" d="M174.2,35.22c-44.32,5.88-37.14,25.56-51.37,39.53C172.25,65.94,167.87,39.4,174.2,35.22Z" transform="translate(-34.31 -33.63)"/></g><path class="cls-3" d="M184.86,33.63V51.87c37.64,74.86,5.2,72.86,0,83.4v191.1a96.33,96.33,0,0,0,10.39-.71l.1,0a146.5,146.5,0,0,0-10.49-292ZM250.13,86c25.27,77-55,82.34-55,95.1C195.12,112.58,252.62,130.22,250.13,86Zm-55,206.7c0-50.27,70-43.37,75.92-86.75C271,297.05,195.12,279.91,195.12,292.7Zm0-50.27c0-69.38,75.92-60.37,75.92-103.21C271,230.32,195.12,229.63,195.12,242.43Z" transform="translate(-34.31 -33.63)"/></svg>